<svg xmlns="http://www.w3.org/2000/svg" viewBox="0 0 1440 320">
    <path fill="#eeeeee" fill-opacity="1" d="M0,192L30,202.7C60,213,120,235,180,245.3C240,256,300,256,360,240C420,224,480,192,540,165.3C600,139,660,117,720,106.7C780,96,840,96,900,117.3C960,139,1020,181,1080,208C1140,235,1200,245,1260,213.3C1320,181,1380,107,1410,69.3L1440,32L1440,320L1410,320C1380,320,1320,320,1260,320C1200,320,1140,320,1080,320C1020,320,960,320,900,320C840,320,780,320,720,320C660,320,600,320,540,320C480,320,420,320,360,320C300,320,240,320,180,320C120,320,60,320,30,320L0,320Z"></path>
</svg>